<?xml version="1.0" encoding="utf-8"?>
<!DOCTYPE svg PUBLIC "-//W3C//DTD SVG 20010904//EN" "http://www.w3.org/TR/2001/REC-SVG-20010904/DTD/svg10.dtd">
<svg version="1.0" xmlns="http://www.w3.org/2000/svg" width="294px" height="91px" viewBox="0 0 294 91" preserveAspectRatio="xMidYMid meet">
 <g fill="#ffffff">
  <path d="M0 45.5 l0 -45.5 147 0 147 0 0 45.5 0 45.5 -147 0 -147 0 0 -45.5z"/>
 </g>
 <g fill="#e01e26">
  <path d="M3.2 77.7 c-0.9 -1.1 1.2 -5.2 9.7 -18.8 5.9 -9.6 15.5 -25 21.3 -34.4 5.8 -9.3 11.2 -17.1 12.1 -17.3 0.9 -0.2 4.7 4.5 10.6 13.2 5.1 7.5 9.4 13.6 9.6 13.6 0.4 0 9.5 -13.7 9.5 -14.3 0 -0.2 -1 -0.3 -2.2 -0.2 -4.3 0 -3.3 -1.8 1.9 -3.6 5.1 -1.7 5.3 -1.7 6.3 0 1.7 3.2 2.4 10.1 1 10.1 -0.6 0 -1.4 -0.9 -1.7 -2 -0.3 -1.1 -0.8 -2 -1.2 -2 -0.3 0.1 -2.9 3.7 -5.8 8.2 l-5.1 8.2 9.6 14 c5.3 7.8 11.1 16.3 12.9 19 1.8 2.6 3.3 5.4 3.3 6.2 0 1.2 -4.7 1.4 -27.5 1.4 -21.7 0 -27.5 -0.3 -27.5 -1.3 0 -0.7 5.4 -9.7 12 -20.1 l12 -18.8 -1.7 -2.9 c-1 -1.6 -2.1 -2.9 -2.5 -2.9 -0.6 0 -4.6 6 -22.4 34.3 l-7.1 11.2 -13 0.3 c-10 0.2 -13.3 -0.1 -14.1 -1.1z m25.6 -4.6 c0.1 -0.3 3.1 -5.1 6.7 -10.6 3.5 -5.5 9.8 -15.5 14 -22.2 l7.6 -12.1 -4.7 -6.9 c-2.6 -3.7 -5 -7.2 -5.4 -7.6 -0.4 -0.5 -4.7 5.6 -9.6 13.5 -4.8 7.9 -13.2 21.4 -18.6 30.1 -5.4 8.7 -9.6 16.2 -9.3 16.7 0.6 0.9 18.8 0.1 19.3 -0.9z m58.9 0.7 c-0.2 -0.7 -4.6 -7.4 -9.7 -14.8 -5.1 -7.4 -9.5 -14.1 -9.7 -14.7 -0.3 -0.7 -0.9 -1.3 -1.3 -1.3 -0.5 0 -15.2 22.1 -20.3 30.7 -0.7 1.1 2.9 1.3 20.4 1.3 16.5 0 21 -0.3 20.6 -1.2z"/>
  <path d="M173.4 67.6 c-1.8 -0.8 -3.5 -1.9 -3.8 -2.5 -1.1 -1.8 -2.6 -1.3 -2.6 0.9 0 1.6 -0.7 2 -3 2 l-3 0 0 -24 0 -24 3.5 0 3.5 0 0 9.7 0 9.6 2.3 -2.1 c2.9 -2.8 8.2 -4.4 11.6 -3.5 15.1 3.5 17.9 25.7 4.1 33 -4.9 2.6 -8.1 2.8 -12.6 0.9z m10.9 -8.1 c6.6 -6.7 2.3 -19.5 -6.6 -19.5 -6 0 -9.7 4.6 -9.7 12 0 8.7 10.3 13.4 16.3 7.5z"/>
  <path d="M222 67.3 c-4.6 -2.3 -6.6 -6.5 -5.4 -11.1 1.4 -5.6 5.2 -7.7 14 -7.7 7.3 0 7.4 0 7.4 -2.6 0 -3 -3.8 -6.9 -6.7 -6.9 -1.2 0 -3.4 1.1 -5 2.4 -2 1.7 -3.6 2.3 -5.6 1.9 -4.7 -0.9 -2.7 -5.5 3.6 -8.4 7.5 -3.4 15.1 -1.6 18.7 4.3 1.7 2.9 2 5 2 16.1 l0 12.7 -3 0 c-2.3 0 -3 -0.4 -3 -2 0 -2.1 0 -2.1 -2.8 0 -4.1 3 -9.9 3.5 -14.2 1.3z m13.4 -6.4 c2.9 -2.3 3.5 -6.3 1 -7.3 -3.4 -1.3 -9.4 -0.6 -11.4 1.4 -2.4 2.4 -2.4 2.9 -0.4 5.8 2 2.9 7.2 2.9 10.8 0.1z"/>
  <path d="M119.2 45.5 l9 -22.5 4.3 0 4.3 0 9 22.6 9.1 22.5 -4.1 -0.3 c-3.9 -0.3 -4.1 -0.5 -6 -5.6 l-2 -5.3 -10.6 0.3 -10.7 0.3 -1.9 5.3 c-1.8 5 -2 5.2 -5.6 5.2 l-3.8 0 9 -22.5z m20.5 3.3 c-0.3 -0.7 -2 -5 -3.8 -9.6 -1.8 -4.5 -3.5 -7.9 -3.9 -7.5 -0.8 1 -7 16.5 -7 17.6 0 0.4 3.4 0.7 7.6 0.7 5.7 0 7.5 -0.3 7.1 -1.2z"/>
  <path d="M202 51 l0 -17 3.5 0 3.5 0 0 17 0 17 -3.5 0 -3.5 0 0 -17z"/>
  <path d="M254 51 l0 -17 3 0 c2.3 0 3 0.4 3 2 0 2.5 0.8 2.5 3.5 0 5.1 -4.7 14.3 -3.1 18 3.3 1.6 2.6 2 5.7 2.3 16 l0.4 12.7 -4.1 0 -4.1 0 0 -11.8 c0 -14.1 -0.9 -16.2 -7 -16.2 -3 0 -4.3 0.6 -5.9 2.6 -1.8 2.3 -2.1 4.1 -2.1 14 l0 11.4 -3.5 0 -3.5 0 0 -17z"/>
  <path d="M202.6 27.4 c-0.9 -0.8 -1.6 -2.2 -1.6 -2.9 0 -1.8 2.7 -4.5 4.5 -4.5 1.8 0 4.5 2.7 4.5 4.5 0 1.8 -2.7 4.5 -4.5 4.5 -0.7 0 -2.1 -0.7 -2.9 -1.6z"/>
 </g>
</svg>